#!OML:ASF H:\MichaelJackson\Top Level 1\Subject 1\Session 1\male.ASF
:FULLY-SPECIFIED
:DEGREES
371
root 18.6754 16.8497 -16.1992 -10.4929 25.1759 -3.43455
lowerback 14.4276 -0.158404 2.5701
upperback 4.49007 0.0986126 -2.62776
thorax -3.32891 0.0838424 -4.2384
lowerneck -4.92481 -9.28587 8.48052
upperneck -2.01911 -12.7597 2.52004
head -0.190557 -6.40973 -0.699751
rclavicle 6.95746e-015 1.74931e-014
rhumerus -62.6337 -28.0729 -46.2824
rradius 56.1252
rwrist -12.8517
rhand -19.5029 -29.803
rfingers 7.12502
rthumb 6.81966 -59.6731
lclavicle 6.95746e-015 1.74931e-014
lhumerus -31.6563 -27.385 85.2713
lradius 45.6938
lwrist 14.4727
lhand 9.17752 7.25411
lfingers 7.12502
lthumb 34.3458 33.9604
rfemur -62.6483 -2.45943 -1.29657
rtibia 67.3641
rfoot 18.1968 5.24787
rtoes 14.1419
lfemur -8.51355 2.56021 -18.6343
ltibia 34.765
lfoot -14.4539 -12.2578
ltoes 22.5518
372
root 18.6873 16.8529 -16.1908 -10.2558 24.827 -3.25708
lowerback 14.2585 -0.27556 2.21954
upperback 4.47375 -0.105449 -2.52257
thorax -3.27443 -0.0182256 -3.89016
lowerneck -4.73051 -9.08529 8.09134
upperneck -2.03068 -12.4576 2.56549
head -0.189224 -6.25868 -0.617761
rclavicle 1.37161e-014 -1.11319e-014
rhumerus -62.9434 -28.5075 -45.1468
rradius 57.1142
rwrist -14.9012
rhand -22.2278 -31.956
rfingers 7.12502
rthumb 4.18878 -61.8946
lclavicle 1.37161e-014 -1.11319e-014
lhumerus -31.522 -27.351 85.7374
lradius 46.2311
lwrist 14.7582
lhand 10.3033 7.28401
lfingers 7.12502
lthumb 35.4139 33.7424
rfemur -61.8879 -2.51961 -0.447484
rtibia 59.5975
rfoot 15.1645 7.21752
rtoes 9.91369
lfemur -8.4817 3.54717 -18.6427
ltibia 34.5379
lfoot -14.3514 -12.9534
ltoes 24.1798
373
root 18.6979 16.8544 -16.1797 -9.91227 24.3897 -3.05187
lowerback 14.0108 -0.365775 1.83543
upperback 4.40253 -0.280204 -2.43214
thorax -3.22938 -0.107171 -3.54458
lowerneck -4.54937 -8.87449 7.69796
upperneck -1.99155 -12.1466 2.60682
head -0.171181 -6.10119 -0.538789
rclavicle 8.94531e-015 -6.36111e-015
rhumerus -63.199 -28.8839 -44.1916
rradius 58.2212
rwrist -16.609
rhand -25.1932 -34.3682
rfingers 7.12502
rthumb 1.32501 -64.3438
lclavicle 8.94531e-015 -6.36111e-015
lhumerus -31.4917 -27.3794 86.2106
lradius 46.8507
lwrist 15.0593
lhand 11.4331 7.34585
lfingers 7.12502
lthumb 36.4843 33.5419
rfemur -61.3212 -2.94104 0.867317
rtibia 52.2815
rfoot 12.0624 8.55516
rtoes 4.83481
lfemur -8.56514 4.59381 -18.6629
ltibia 34.3644
lfoot -14.2741 -13.6229
ltoes 25.6765
374
root 18.7048 16.8541 -16.1671 -9.51043 23.8838 -2.82182
lowerback 13.7322 -0.426463 1.40619
upperback 4.29442 -0.422074 -2.36089
thorax -3.20061 -0.180492 -3.20062
lowerneck -4.38356 -8.66239 7.31827
upperneck -1.91739 -11.8384 2.65706
head -0.141625 -5.94381 -0.461027
rclavicle -2.52457e-014 -3.97569e-015
rhumerus -63.4246 -29.2537 -43.395
rradius 59.4271
rwrist -17.8693
rhand -28.2348 -37.0527
rfingers 7.12502
rthumb -1.61266 -67.0264
lclavicle -2.52457e-014 -3.97569e-015
lhumerus -31.5539 -27.4983 86.6745
lradius 47.5606
lwrist 15.3752
lhand 12.5224 7.46272
lfingers 7.12502
lthumb 37.5146 33.3924
rfemur -61.0369 -3.82002 2.86217
rtibia 45.7344
rfoot 9.20085 9.196
rtoes -1.56879
lfemur -8.73308 5.63025 -18.701
ltibia 34.2569
lfoot -14.2278 -14.2102
ltoes 26.8859
375
root 18.7067 16.851 -16.1552 -9.09575 23.3204 -2.54872
lowerback 13.4884 -0.463441 0.939164
upperback 4.16924 -0.537341 -2.33196
thorax -3.20398 -0.240608 -2.88564
lowerneck -4.23887 -8.44987 6.96508
upperneck -1.82557 -11.5341 2.73648
head -0.104546 -5.78767 -0.379997
rclavicle 3.22031e-014 -1.11319e-014
rhumerus -63.6333 -29.64 -42.7772
rradius 60.7318
rwrist -18.6654
rhand -31.1875 -40.0202
rfingers 7.12502
rthumb -4.46421 -69.9531
lclavicle 3.22031e-014 -1.11319e-014
lhumerus -31.6936 -27.7139 87.0899
lradius 48.3707
lwrist 15.6908
lhand 13.5804 7.68275
lfingers 7.12502
lthumb 38.5138 33.3403
rfemur -61.172 -5.31567 5.8175
rtibia 40.3012
rfoot 6.87331 9.33634
rtoes -8.85731
lfemur -8.94583 6.5327 -18.7954
ltibia 34.225
lfoot -14.2449 -14.5753
ltoes 27.4921
376
root 18.7023 16.8451 -16.1459 -8.7192 22.7078 -2.20951
lowerback 13.3449 -0.478469 0.426338
upperback 4.05036 -0.630095 -2.36498
thorax -3.25158 -0.288812 -2.6144
lowerneck -4.12493 -8.23715 6.65058
upperneck -1.72975 -11.2344 2.85874
head -0.0625197 -5.63346 -0.293494
rclavicle 5.88403e-014 1.74931e-014
rhumerus -63.8251 -30.1164 -42.319
rradius 62.0998
rwrist -19.0239
rhand -33.9097 -43.2004
rfingers 7.12502
rthumb -7.09241 -73.0615
lclavicle 5.88403e-014 1.74931e-014
lhumerus -31.8987 -28.0298 87.4267
lradius 49.2897
lwrist 15.9996
lhand 14.581 8.02763
lfingers 7.12502
lthumb 39.4571 33.4152
rfemur -61.8675 -7.44793 9.91154
rtibia 36.3148
rfoot 5.26493 9.18699
rtoes -15.6432
lfemur -9.14892 7.26368 -18.9703
ltibia 34.2702
lfoot -14.3399 -14.6671
ltoes 27.3715
377
root 18.6908 16.8361 -16.14 -8.43395 22.0459 -1.79774
lowerback 13.343 -0.46692 -0.143085
upperback 3.97022 -0.696732 -2.45963
thorax -3.33257 -0.322552 -2.38033
lowerneck -4.05524 -8.02531 6.38904
upperneck -1.65416 -10.941 3.0154
head -0.0220895 -5.48283 -0.206077
rclavicle -2.88238e-015 7.95139e-015
rhumerus -63.9822 -30.6957 -42.0397
rradius 63.544
rwrist -19.1104
rhand -36.3324 -46.511
rfingers 7.12502
rthumb -9.43049 -76.28
lclavicle -2.88238e-015 7.95139e-015
lhumerus -32.14 -28.447 87.6702
lradius 50.3196
lwrist 16.3058
lhand 15.4434 8.5084
lfingers 7.12502
lthumb 40.2689 33.6528
rfemur -63.1983 -9.96168 15.002
rtibia 34.0219
rfoot 4.40575 8.70718
rtoes -20.3175
lfemur -9.28026 7.79742 -19.2283
ltibia 34.3835
lfoot -14.5331 -14.4304
ltoes 26.3957
378
root 18.6733 16.8226 -16.1381 -8.26769 21.3323 -1.30346
lowerback 13.5034 -0.429924 -0.759944
upperback 3.94843 -0.740202 -2.62053
thorax -3.43861 -0.343051 -2.1927
lowerneck -4.03985 -7.81095 6.18915
upperneck -1.61104 -10.6496 3.19084
head 0.0135278 -5.33399 -0.123741
rclavicle 2.51463e-014 -2.3059e-014
rhumerus -64.0742 -31.3714 -41.9753
rradius 65.0806
rwrist -19.1065
rhand -38.4619 -49.8453
rfingers 7.12502
rthumb -11.4847 -79.5107
lclavicle 2.51463e-014 -2.3059e-014
lhumerus -32.4011 -28.9519 87.8055
lradius 51.4572
lwrist 16.6152
lhand 16.2496 9.0726
lfingers 7.12502
lthumb 41.0266 33.9805
rfemur -65.0452 -12.3453 20.4661
rtibia 33.4699
rfoot 4.23933 7.57309
rtoes -22.4953
lfemur -9.29584 8.15609 -19.5773
ltibia 34.545
lfoot -14.8239 -13.8577
ltoes 24.5252
379
root 18.6516 16.8052 -16.1404 -8.23335 20.5854 -0.71478
lowerback 13.8263 -0.377388 -1.42189
upperback 3.99806 -0.776276 -2.84654
thorax -3.55688 -0.358198 -2.04924
lowerneck -4.07648 -7.58776 6.04679
upperneck -1.61356 -10.3505 3.3681
head 0.0396459 -5.18258 -0.0502541
rclavicle 2.93207e-014 -1.74931e-014
rhumerus -64.0554 -32.107 -42.1761
rradius 66.734
rwrist -19.1715
rhand -40.3401 -53.1452
rfingers 7.12502
rthumb -13.2957 -82.7011
lclavicle 2.93207e-014 -1.74931e-014
lhumerus -32.6644 -29.5058 87.8307
lradius 52.6787
lwrist 16.9211
lhand 17.0603 9.7512
lfingers 7.12502
lthumb 41.7873 34.4121
rfemur -67.0201 -14.0502 25.3381
rtibia 34.4628
rfoot 4.61587 5.39985
rtoes -22.734
lfemur -9.16209 8.39236 -20.0271
ltibia 34.7324
lfoot -15.1866 -13.0112
ltoes 21.9097
380
root 18.6277 16.7841 -16.1461 -8.32988 19.8247 -0.0496423
lowerback 14.2827 -0.317273 -2.11022
upperback 4.12006 -0.81489 -3.12242
thorax -3.67042 -0.373394 -1.94324
lowerneck -4.1476 -7.35512 5.95971
upperneck -1.67368 -10.0408 3.52145
head 0.0489163 -5.02783 0.00834079
rclavicle 2.77305e-014 1.74931e-014
rhumerus -63.889 -32.8456 -42.6829
rradius 68.5231
rwrist -19.3844
rhand -41.978 -56.3103
rfingers 7.12502
rthumb -14.8739 -85.7564
lclavicle 2.77305e-014 1.74931e-014
lhumerus -32.9185 -30.0845 87.7644
lradius 53.9466
lwrist 17.2229
lhand 17.8484 10.4684
lfingers 7.12502
lthumb 42.5257 34.8799
rfemur -68.7221 -14.8362 28.913
rtibia 36.6701
rfoot 5.33006 2.33368
rtoes -21.8729
lfemur -8.87104 8.58853 -20.5532
ltibia 34.9194
lfoot -15.5784 -12.0121
ltoes 18.9096
381
root 18.6036 16.7596 -16.1536 -8.53733 19.089 0.650216
lowerback 14.8281 -0.267046 -2.77929
upperback 4.30133 -0.87321 -3.43018
thorax -3.76882 -0.397889 -1.87891
lowerneck -4.23457 -7.1149 5.92052
upperneck -1.78893 -9.72116 3.62877
head 0.0387162 -4.87041 0.0473268
rclavicle 4.87022e-015 -1.27222e-014
rhumerus -63.554 -33.5051 -43.5433
rradius 70.4786
rwrist -19.7675
rhand -43.3925 -59.2932
rfingers 7.12502
rthumb -16.2363 -88.6334
lclavicle 4.87022e-015 -1.27222e-014
lhumerus -33.1551 -30.6661 87.6294
lradius 55.2074
lwrist 17.5063
lhand 18.6714 11.2401
lfingers 7.12502
lthumb 43.2955 35.3808
rfemur -69.9617 -14.7766 30.9865
rtibia 39.7494
rfoot 6.31612 -0.993671
rtoes -20.2134
lfemur -8.45106 8.81518 -21.1067
ltibia 35.0927
lfoot -15.9729 -11.0162
ltoes 16.0099
